<?xml version="1.0" encoding="UTF-8" standalone="no"?><!DOCTYPE svg PUBLIC "-//W3C//DTD SVG 1.1//EN" "http://www.w3.org/Graphics/SVG/1.1/DTD/svg11.dtd"><svg width="100%" height="100%" viewBox="0 0 191 222" version="1.1" xmlns="http://www.w3.org/2000/svg" xmlns:xlink="http://www.w3.org/1999/xlink" xml:space="preserve" xmlns:serif="http://www.serif.com/" style="fill-rule:evenodd;clip-rule:evenodd;stroke-linejoin:round;stroke-miterlimit:1.41421;"><path d="M97.8,35.45c-51.4,0 -93.1,41.7 -93.1,93.2c0,51.5 41.7,93.1 93.1,93.1c51.4,0 93.1,-41.7 93.1,-93.2c0,-51.5 -41.6,-93.1 -93.1,-93.1Zm0,158.8c-36.2,0 -65.6,-29.4 -65.6,-65.6c0,-36.2 29.4,-65.6 65.6,-65.6c36.2,0 65.6,29.4 65.6,65.6c0,36.2 -29.3,65.6 -65.6,65.6Zm0,-117.8l0,48.9c0,1.4 1.5,2.4 2.8,1.7l43.4,-22.5c1,-0.5 1.3,-1.7 0.8,-2.7c-9,-15.8 -25.7,-26.6 -45,-27.3c-1,0 -2,0.8 -2,1.9Zm-60.8,-35.9l-5.7,-5.7c-5.6,-5.6 -14.6,-5.6 -20.2,0l-6.8,6.8c-5.6,5.6 -5.6,14.6 0,20.2l5.6,5.6c0.9,0.9 2.2,0.7 3,-0.2c3.3,-4.5 6.9,-8.8 10.9,-12.8c4.1,-4.1 8.3,-7.7 12.9,-11c1,-0.6 1.1,-2 0.3,-2.9Zm91.3,-14.8l0,-11.3c0,-7.9 -6.4,-14.3 -14.3,-14.3l-33.3,0c-7.9,0 -14.3,6.4 -14.3,14.3l0,11.6c0,1.3 1.2,2.2 2.5,1.9c9.3,-2.7 19.1,-4.1 29,-4.1c9.5,0 18.9,1.3 28,3.8c1.2,0.3 2.4,-0.6 2.4,-1.9Z" style="fill:#fff;fill-rule:nonzero;"/></svg>